<svg width="14" height="10" viewBox="0 0 14 10" fill="none" xmlns="http://www.w3.org/2000/svg">
<path d="M8.91026 1.7074H2.98879L3.47767 1.24913C3.78249 0.963401 3.78249 0.500406 3.47767 0.214298C3.17285 -0.0714325 2.67892 -0.0714325 2.3737 0.214298L0.55259 1.92136C0.552253 1.92168 0.55185 1.92168 0.55185 1.92168L0 2.43935L0.551783 2.95626C0.551783 2.95626 0.552119 2.95657 0.552523 2.95727L2.50354 4.78579C2.65612 4.92881 2.85592 5.00013 3.05532 5.00013C3.25546 5.00013 3.45486 4.92881 3.60751 4.78579C3.91233 4.50006 3.91233 4.03706 3.60751 3.75096L2.98879 3.17098H8.91026C10.4884 3.17098 11.7724 4.37488 11.7724 5.85386C11.7724 7.33283 10.488 8.53673 8.91026 8.53673H1.10471C0.67328 8.53673 0.323858 8.86427 0.323858 9.26837C0.323858 9.6724 0.67328 10 1.10471 10H8.91026C11.3494 10 13.3333 8.13995 13.3333 5.85392C13.3333 3.56789 11.3494 1.7074 8.91026 1.7074Z" fill="#03989E"/>
</svg>
